KRSPY-parametric-WideThinMaxGrade-maxXOPQminYOPQmaxXTRA.ufo
<glyph name="comma" format="2">
  <advance width="442"/>
  <unicode hex="002C"/>
  <outline>
    <contour>
      <point x="192" y="-573" type="line"/>
      <point x="223" y="0" type="line"/>
      <point x="223" y="4" type="line"/>
      <point x="137" y="4" type="line"/>
      <point x="121" y="2" type="line"/>
      <point x="121" y="0" type="line"/>
      <point x="174" y="0" type="line"/>
      <point x="174" y="-573" type="line"/>
    </contour>
  </outline>
</glyph>
<glyph name="three" format="2">
  <advance width="4100"/>
  <unicode hex="0033"/>
  <outline>
    <contour>
      <point x="90" y="0" type="line" identifier="O9abUc1nmN"/>
      <point x="3919" y="0" type="line" identifier="kMJYMTfXCq"/>
      <point x="3919" y="801" type="line" identifier="su2XmdS8e8"/>
      <point x="2750" y="801" type="line" identifier="JQaOzDQqlF"/>
      <point x="2740" y="802" type="line"/>
      <point x="3901" y="1126" type="line" identifier="S91TzLL02W"/>
      <point x="3901" y="1600" type="line" identifier="xg8x2Ki40p"/>
      <point x="94" y="1600" type="line" identifier="pE1XSRiy68"/>
      <point x="94" y="1587" type="line" identifier="5lNstGRcSF"/>
      <point x="197" y="1587" type="line" identifier="AcE5xKDZfE"/>
      <point x="197" y="1598" type="line" identifier="7ogBYufWpl"/>
      <point x="3775" y="1598" type="line" identifier="RHLvSX2Jv6"/>
      <point x="3775" y="1105" type="line" identifier="YUjTrmoWd9"/>
      <point x="2639" y="803" type="line"/>
      <point x="2649" y="801" type="line" identifier="iic1IBkDqp"/>
      <point x="880" y="801" type="line" identifier="lRLJEhXMlO"/>
      <point x="880" y="799" type="line" identifier="8aKgEELrVU"/>
      <point x="3817" y="799" type="line" identifier="Dm8zjmbhNr"/>
      <point x="3817" y="2" type="line" identifier="xv9CFHiFgB"/>
      <point x="191" y="2" type="line" identifier="YajKQV3MHP"/>
      <point x="191" y="13" type="line" identifier="36SchVkwze"/>
      <point x="90" y="13" type="line" identifier="tVui9PiOjA"/>
    </contour>
  </outline>
</glyph>
<glyph name="four" format="2">
  <advance width="4013"/>
  <unicode hex="0034"/>
  <outline>
    <contour>
      <point x="3395" y="0" type="line"/>
      <point x="3497" y="0" type="line"/>
      <point x="3497" y="799" type="line"/>
      <point x="3923" y="799" type="line"/>
      <point x="3923" y="801" type="line"/>
      <point x="3497" y="801" type="line"/>
      <point x="3497" y="1600" type="line"/>
      <point x="3395" y="1600" type="line"/>
      <point x="3395" y="801" type="line"/>
      <point x="192" y="801" type="line"/>
      <point x="192" y="1121" type="line"/>
      <point x="692" y="1680" type="line"/>
      <point x="588" y="1680" type="line"/>
      <point x="90" y="1121" type="line"/>
      <point x="90" y="799" type="line"/>
      <point x="3395" y="799" type="line"/>
    </contour>
  </outline>
</glyph>
<glyph name="B" format="2">
  <advance width="4255"/>
  <unicode hex="0042"/>
  <outline>
    <contour>
      <point x="234" y="0" type="line" identifier="hvY9r8RmLr"/>
      <point x="4074" y="0" type="line" identifier="9QFpw7nfq7"/>
      <point x="4074" y="523" type="line" identifier="543PerILpr"/>
      <point x="3706" y="799" type="line" identifier="zhomauHW30"/>
      <point x="3706" y="801" type="line" identifier="870ZhtaozS"/>
      <point x="3982" y="1070" type="line" identifier="eGKH52Jgnk"/>
      <point x="3982" y="1600" type="line" identifier="FaP204GrdB"/>
      <point x="234" y="1600" type="line" identifier="JEev70GAj6"/>
    </contour>
    <contour>
      <point x="336" y="801" type="line" identifier="By7dfMihfe"/>
      <point x="336" y="1598" type="line" identifier="1p5hKrurVy"/>
      <point x="3880" y="1598" type="line" identifier="Qby8aMtF2X"/>
      <point x="3880" y="1071" type="line" identifier="9lW01gQyU2"/>
      <point x="3603" y="801" type="line" identifier="xpxyvIzPoc"/>
    </contour>
    <contour>
      <point x="336" y="2" type="line" identifier="jaMSiLrCua"/>
      <point x="336" y="799" type="line" identifier="XSrxNd2axx"/>
      <point x="3603" y="799" type="line" identifier="VyYlzRh5nq"/>
      <point x="3972" y="522" type="line" identifier="lsRGatjQja"/>
      <point x="3972" y="2" type="line" identifier="xhlDJ3CjD5"/>
    </contour>
  </outline>
</glyph>
<glyph name="M" format="2">
  <advance width="5139"/>
  <unicode hex="004D"/>
  <outline>
    <contour>
      <point x="2259" y="73" type="line" identifier="0Dn4Xpf57M"/>
      <point x="805" y="1598" type="line"/>
      <point x="371" y="1598" type="line"/>
      <point x="371" y="0" type="line"/>
      <point x="269" y="0" type="line"/>
      <point x="269" y="1600" type="line"/>
      <point x="840" y="1600" type="line"/>
      <point x="2294" y="75" type="line"/>
      <point x="2845" y="75" type="line" identifier="9aKZPM0HPh"/>
      <point x="4300" y="1600" type="line"/>
      <point x="4871" y="1600" type="line"/>
      <point x="4871" y="0" type="line"/>
      <point x="4768" y="0" type="line"/>
      <point x="4768" y="1598" type="line"/>
      <point x="4335" y="1598" type="line"/>
      <point x="2880" y="73" type="line" identifier="spdoeeCFft"/>
    </contour>
  </outline>
</glyph>
<glyph name="O" format="2">
  <advance width="4267"/>
  <unicode hex="004F"/>
  <outline>
    <contour>
      <point x="4086" y="486" type="line" identifier="ob8US3C311"/>
      <point x="4086" y="1600" type="line" identifier="c9brEFyXXA"/>
      <point x="676" y="1600" type="line" identifier="a4Ql951bxG"/>
      <point x="181" y="1107" type="line" identifier="kbL68Qh2zr"/>
      <point x="181" y="0" type="line" identifier="U6WibAQAUl"/>
      <point x="3592" y="0" type="line" identifier="dfgNHTgBfR"/>
    </contour>
    <contour>
      <point x="3984" y="482" type="line" identifier="SnrsQD5TLy"/>
      <point x="3498" y="2" type="line" identifier="jjd5iRDXWT"/>
      <point x="283" y="2" type="line" identifier="YbQKHpAtYn"/>
      <point x="283" y="1110" type="line" identifier="vdfGLkskOQ"/>
      <point x="770" y="1598" type="line" identifier="qXlVxK5ShE"/>
      <point x="3984" y="1598" type="line" identifier="g70r2r6DwY"/>
    </contour>
  </outline>
</glyph>
<glyph name="P" format="2">
  <advance width="3885"/>
  <unicode hex="0050"/>
  <outline>
    <contour>
      <point x="234" y="0" type="line" identifier="EG08jqU5fb"/>
      <point x="336" y="0" type="line" identifier="osRzIFK2Cu"/>
      <point x="336" y="606" type="line" identifier="hIFVovVRwe"/>
      <point x="3795" y="835" type="line" identifier="Tt6D8zYZmU"/>
      <point x="3795" y="1600" type="line" identifier="6xW04auDFu"/>
      <point x="234" y="1600" type="line" identifier="eETO5GBD5v"/>
    </contour>
    <contour>
      <point x="336" y="608" type="line" identifier="PIBVN1PGv1"/>
      <point x="336" y="1598" type="line" identifier="IZIZQr2gYJ"/>
      <point x="3693" y="1598" type="line" identifier="2c4LCF1E1R"/>
      <point x="3693" y="830" type="line" identifier="1WCnzth1GX"/>
    </contour>
  </outline>
</glyph>
<glyph name="S" format="2">
  <advance width="3882"/>
  <unicode hex="0053"/>
  <outline>
    <contour>
      <point x="92" y="0" type="line" identifier="09VlJ0BjUX"/>
      <point x="3793" y="0" type="line" identifier="EagWihqFM8"/>
      <point x="3793" y="801" type="line" identifier="KfNuQA7eZe"/>
      <point x="192" y="801" type="line" identifier="At364YZFEy"/>
      <point x="192" y="1116" type="line"/>
      <point x="625" y="1598" type="line"/>
      <point x="3690" y="1598" type="line" identifier="3ZUkG35meB"/>
      <point x="3690" y="1160" type="line" identifier="DTOJhFIl15"/>
      <point x="3793" y="1160" type="line" identifier="9KDcrfQ5Ui"/>
      <point x="3793" y="1600" type="line" identifier="SaF9ojRFrW"/>
      <point x="525" y="1600" type="line"/>
      <point x="90" y="1116" type="line"/>
      <point x="90" y="799" type="line" identifier="3sQ8t8BZ6b"/>
      <point x="3690" y="799" type="line" identifier="yiV6OCBLHg"/>
      <point x="3690" y="2" type="line" identifier="9kdl9SYsn8"/>
      <point x="193" y="2" type="line" identifier="yZDWuX8LLe"/>
      <point x="193" y="478" type="line" identifier="jYb9001DTm"/>
      <point x="92" y="478" type="line" identifier="ho4DrS0rdW"/>
    </contour>
  </outline>
</glyph>
<glyph name="W" format="2">
  <advance width="5316"/>
  <unicode hex="0057"/>
  <outline>
    <contour>
      <point x="371" y="1600" type="line" smooth="yes" identifier="12Pyby1xY2"/>
      <point x="269" y="1600" type="line" smooth="yes" identifier="5LJg4ajoG6"/>
      <point x="269" y="0" type="line" smooth="yes" identifier="ZqTZqAY3uY"/>
      <point x="2456" y="0" type="line" smooth="yes" identifier="rCeQLyjlsN"/>
      <point x="2664" y="306" type="line"/>
      <point x="2666" y="306" type="line"/>
      <point x="2666" y="0" type="line" smooth="yes" identifier="Pkl7cZ37MU"/>
      <point x="4592" y="0" type="line" smooth="yes" identifier="R4lklfJsHA"/>
      <point x="5097" y="497" type="line" smooth="yes" identifier="7g7f8Wu7K4"/>
      <point x="5097" y="1600" type="line" smooth="yes" identifier="RTOJW56qXy"/>
      <point x="4995" y="1600" type="line" identifier="JfSFAkWGZC"/>
      <point x="4995" y="497" type="line" smooth="yes" identifier="WWvGwSpq0g"/>
      <point x="4489" y="2" type="line" smooth="yes" identifier="oee4nqI8Wl"/>
      <point x="2734" y="2" type="line" identifier="Ljn2lpvpG8"/>
      <point x="2734" y="300" type="line"/>
      <point x="2734" y="1510" type="line" smooth="yes"/>
      <point x="2632" y="1510" type="line"/>
      <point x="2632" y="316" type="line"/>
      <point x="2632" y="313" type="line"/>
      <point x="2423" y="2" type="line" identifier="GlWB6PG54Z"/>
      <point x="371" y="2" type="line" identifier="iqeTRv7HXg"/>
    </contour>
  </outline>
</glyph>
<glyph name="X" format="2">
  <advance width="4282"/>
  <unicode hex="0058"/>
  <outline>
    <contour>
      <point x="3591" y="799" type="line"/>
      <point x="3961" y="514" type="line"/>
      <point x="3961" y="0" type="line"/>
      <point x="4063" y="0" type="line"/>
      <point x="4063" y="515" type="line"/>
      <point x="3683" y="799" type="line"/>
      <point x="3683" y="801" type="line"/>
      <point x="4060" y="1074" type="line"/>
      <point x="4060" y="1600" type="line"/>
      <point x="3958" y="1600" type="line"/>
      <point x="3958" y="1071" type="line"/>
      <point x="3591" y="801" type="line"/>
      <point x="692" y="801" type="line"/>
      <point x="324" y="1071" type="line"/>
      <point x="324" y="1600" type="line"/>
      <point x="222" y="1600" type="line"/>
      <point x="222" y="1074" type="line"/>
      <point x="598" y="801" type="line"/>
      <point x="598" y="799" type="line"/>
      <point x="219" y="515" type="line"/>
      <point x="219" y="0" type="line"/>
      <point x="321" y="0" type="line"/>
      <point x="321" y="514" type="line"/>
      <point x="692" y="799" type="line"/>
    </contour>
  </outline>
</glyph>
<glyph name="G.wide" format="2">
  <advance width="4130"/>
  <outline>
    <contour>
      <point x="219" y="0" type="line" identifier="7lPhzTnk2Z"/>
      <point x="4032" y="0" type="line" identifier="qJVLZGnkwh"/>
      <point x="4032" y="801" type="line" identifier="uek1NNj7De"/>
      <point x="2604" y="801" type="line" identifier="qcvimxjndX"/>
      <point x="2604" y="799" type="line" identifier="EARaY3Su65"/>
      <point x="3929" y="799" type="line" identifier="4m6dHLVhZq"/>
      <point x="3929" y="2" type="line" identifier="Y750RHTvDj"/>
      <point x="321" y="2" type="line" identifier="L2LsGnXiZ2"/>
      <point x="321" y="1105" type="line" identifier="sUWsr03vF4"/>
      <point x="827" y="1598" type="line" identifier="dbOUe6OhxL"/>
      <point x="4031" y="1598" type="line" identifier="5BjRbcud80"/>
      <point x="4031" y="1600" type="line" identifier="9eJelv8BOw"/>
      <point x="725" y="1600" type="line" identifier="lfZev3ICaC"/>
      <point x="219" y="1106" type="line" identifier="V1EWIdPahq"/>
    </contour>
  </outline>
</glyph>
<glyph name="K.alt" format="2">
  <advance width="4041"/>
  <outline>
    <contour>
      <point x="202" y="0" type="line" identifier="wmNm7XZsaF"/>
      <point x="202" y="799" type="line" identifier="O22liaP9Qk"/>
      <point x="3454" y="799" type="line" identifier="ELFBWIb1vd"/>
      <point x="3826" y="799" type="line" identifier="DzXo67YEfw"/>
      <point x="3826" y="0" type="line" identifier="aKpYWD78l2"/>
      <point x="3929" y="0" type="line" identifier="ChS7KlqGi6"/>
      <point x="3929" y="801" type="line" identifier="sWLgkU8Vey"/>
      <point x="3530" y="801" type="line" identifier="Of0iQc0wBG"/>
      <point x="3799" y="1600" type="line" identifier="dMJ1ywOKQQ"/>
      <point x="3695" y="1600" type="line" identifier="08OWjR2YBJ"/>
      <point x="3426" y="801" type="line" identifier="g4YLdZEoM3"/>
      <point x="202" y="801" type="line" identifier="uZuki3Isec"/>
      <point x="202" y="1600" type="line" identifier="nRfcNgqJ4H"/>
      <point x="100" y="1600" type="line" identifier="3XJlWt89ad"/>
      <point x="100" y="0" type="line" identifier="wdbO8kCovY"/>
    </contour>
  </outline>
</glyph>
<glyph name="K.narrow" format="2">
  <advance width="4320"/>
  <outline>
    <contour>
      <point x="371" y="0" type="line"/>
      <point x="371" y="670" type="line"/>
      <point x="3632" y="817" type="line"/>
      <point x="3999" y="0" type="line"/>
      <point x="4101" y="0" type="line"/>
      <point x="3731" y="817" type="line"/>
      <point x="4036" y="831" type="line"/>
      <point x="4036" y="1600" type="line"/>
      <point x="3933" y="1600" type="line"/>
      <point x="3933" y="834" type="line"/>
      <point x="371" y="672" type="line"/>
      <point x="371" y="1600" type="line"/>
      <point x="269" y="1600" type="line"/>
      <point x="269" y="0" type="line"/>
    </contour>
  </outline>
</glyph>
<glyph name="L.wide" format="2">
  <advance width="3601"/>
  <outline>
    <contour>
      <point x="232" y="0" type="line" identifier="XkJNfQlnnt"/>
      <point x="3442" y="0" type="line" identifier="82EXZEgt46"/>
      <point x="3442" y="2" type="line" identifier="cqpSxwFiM3"/>
      <point x="334" y="2" type="line" identifier="MbxRZRd8vz"/>
      <point x="334" y="1600" type="line" identifier="lYiaKSKITt"/>
      <point x="232" y="1600" type="line" identifier="XFf4mMUzYo"/>
    </contour>
  </outline>
</glyph>
<glyph name="N.narrow" format="2">
  <advance width="3130"/>
  <outline>
    <contour>
      <point x="269" y="0" type="line" smooth="yes"/>
      <point x="371" y="0" type="line"/>
      <point x="371" y="1285" type="line"/>
      <point x="580" y="1598" type="line"/>
      <point x="2759" y="1598" type="line"/>
      <point x="2759" y="0" type="line" smooth="yes"/>
      <point x="2862" y="0" type="line" smooth="yes"/>
      <point x="2862" y="1600" type="line" smooth="yes"/>
      <point x="564" y="1600" type="line" smooth="yes"/>
      <point x="362" y="1304" type="line"/>
      <point x="353" y="1304" type="line"/>
      <point x="353" y="1600" type="line"/>
      <point x="269" y="1600" type="line"/>
    </contour>
  </outline>
</glyph>
<glyph name="N.wide" format="2">
  <advance width="4358"/>
  <outline>
    <contour>
      <point x="269" y="0" type="line" identifier="CkwYPPvJLv"/>
      <point x="371" y="0" type="line" identifier="oHTJsN7drZ"/>
      <point x="371" y="1598" type="line" identifier="wfBbYd10Pm"/>
      <point x="844" y="1598" type="line" identifier="MEnBDHq6zU"/>
      <point x="3482" y="0" type="line" identifier="3Nbopwznvn"/>
      <point x="4089" y="0" type="line" identifier="uKfuudIUvA"/>
      <point x="4089" y="1600" type="line" identifier="XRdLFXiM4t"/>
      <point x="3987" y="1600" type="line" identifier="MUSJPjCIXg"/>
      <point x="3987" y="2" type="line" identifier="VILP20cFmq"/>
      <point x="3512" y="2" type="line" identifier="z5b04GDwRN"/>
      <point x="873" y="1600" type="line" identifier="LL64NQ6WBE"/>
      <point x="269" y="1600" type="line" identifier="dzUaaP1sjt"/>
    </contour>
  </outline>
</glyph>
<glyph name="R.alt" format="2">
  <advance width="4041"/>
  <outline>
    <contour>
      <point x="166" y="801" type="line"/>
      <point x="166" y="1598" type="line"/>
      <point x="3870" y="1598" type="line"/>
      <point x="3870" y="801" type="line"/>
    </contour>
    <contour>
      <point x="3976" y="0" type="line"/>
      <point x="3569" y="799" type="line"/>
      <point x="3973" y="799" type="line"/>
      <point x="3973" y="1600" type="line"/>
      <point x="64" y="1600" type="line"/>
      <point x="64" y="0" type="line"/>
      <point x="166" y="0" type="line"/>
      <point x="166" y="799" type="line"/>
      <point x="3466" y="799" type="line"/>
      <point x="3874" y="0" type="line"/>
    </contour>
  </outline>
</glyph>
<glyph name="S.wide" format="2">
  <advance width="3876"/>
  <outline>
    <contour>
      <point x="92" y="0" type="line" identifier="09VlJ0BjUX"/>
      <point x="3787" y="0" type="line" identifier="EagWihqFM8"/>
      <point x="3787" y="801" type="line" identifier="KfNuQA7eZe"/>
      <point x="192" y="801" type="line" identifier="At364YZFEy"/>
      <point x="192" y="1195" type="line"/>
      <point x="534" y="1598" type="line"/>
      <point x="3787" y="1598" type="line" identifier="3ZUkG35meB"/>
      <point x="3787" y="1600" type="line" identifier="SaF9ojRFrW"/>
      <point x="435" y="1600" type="line"/>
      <point x="90" y="1196" type="line"/>
      <point x="90" y="799" type="line" identifier="3sQ8t8BZ6b"/>
      <point x="3684" y="799" type="line" identifier="yiV6OCBLHg"/>
      <point x="3684" y="2" type="line" identifier="9kdl9SYsn8"/>
      <point x="92" y="2" type="line" identifier="yZDWuX8LLe"/>
    </contour>
  </outline>
</glyph>
<glyph name="Z.wide" format="2">
  <advance width="3997"/>
  <outline>
    <contour>
      <point x="105" y="0" type="line"/>
      <point x="3907" y="0" type="line" identifier="pzdvPTirLJ"/>
      <point x="3907" y="2" type="line"/>
      <point x="219" y="2" type="line"/>
      <point x="219" y="410" type="line"/>
      <point x="3902" y="1360" type="line" identifier="yyb1NCCI5w"/>
      <point x="3902" y="1600" type="line" identifier="5FogYRSgkk"/>
      <point x="92" y="1600" type="line" identifier="svlFvrau4c"/>
      <point x="92" y="1598" type="line"/>
      <point x="3775" y="1598" type="line"/>
      <point x="3775" y="1398" type="line"/>
      <point x="105" y="449" type="line" identifier="teVKnpBcVb"/>
    </contour>
  </outline>
</glyph>
<glyph name="five.wide" format="2">
  <advance width="4151"/>
  <outline>
    <contour>
      <point x="160" y="0" type="line" identifier="09VlJ0BjUX"/>
      <point x="3992" y="0" type="line" identifier="EagWihqFM8"/>
      <point x="3992" y="728" type="line" identifier="KfNuQA7eZe"/>
      <point x="261" y="912" type="line" identifier="At364YZFEy"/>
      <point x="261" y="1598" type="line" identifier="BcuLfvaQKC"/>
      <point x="3992" y="1598" type="line" identifier="3ZUkG35meB"/>
      <point x="3992" y="1600" type="line" identifier="SaF9ojRFrW"/>
      <point x="159" y="1600" type="line" identifier="F4sQEYelA8"/>
      <point x="159" y="914" type="line" identifier="3sQ8t8BZ6b"/>
      <point x="3890" y="730" type="line" identifier="yiV6OCBLHg"/>
      <point x="3890" y="2" type="line" identifier="9kdl9SYsn8"/>
      <point x="160" y="2" type="line" identifier="yZDWuX8LLe"/>
    </contour>
  </outline>
</glyph>
<glyph name="six.wide" format="2">
  <advance width="4040"/>
  <outline>
    <contour>
      <point x="101" y="0" type="line" identifier="uiw6aBUf4P"/>
      <point x="3919" y="0" type="line" identifier="jtYkxiUX6G"/>
      <point x="3919" y="801" type="line" identifier="2G5L37c87I"/>
      <point x="203" y="801" type="line"/>
      <point x="203" y="1248" type="line"/>
      <point x="701" y="1598" type="line"/>
      <point x="3918" y="1598" type="line"/>
      <point x="3918" y="1600" type="line" identifier="oGvEEuxnYv"/>
      <point x="599" y="1600" type="line" identifier="xR3pEHbMJx"/>
      <point x="101" y="1249" type="line" identifier="KnMArb0tv8"/>
    </contour>
    <contour>
      <point x="3817" y="799" type="line"/>
      <point x="3817" y="2" type="line"/>
      <point x="203" y="2" type="line"/>
      <point x="203" y="799" type="line"/>
    </contour>
  </outline>
</glyph>
